<mxfile host="65bd71144e">
    <diagram id="Y6pyNk_9VMkp1u8MjLGN" name="第 1 页">
        <mxGraphModel dx="123" dy="578" grid="1" gridSize="10" guides="1" tooltips="1" connect="1" arrows="1" fold="1" page="1" pageScale="1" pageWidth="827" pageHeight="1169" math="0" shadow="0">
            <root>
                <mxCell id="0"/>
                <mxCell id="1" parent="0"/>
                <mxCell id="11" value="LookupData" style="html=1;rounded=1;" vertex="1" parent="1">
                    <mxGeometry x="80" y="40" width="200" height="40" as="geometry"/>
                </mxCell>
                <mxCell id="13" value="CatalogBrand" style="html=1;rounded=1;" vertex="1" parent="1">
                    <mxGeometry x="80" y="120" width="200" height="40" as="geometry"/>
                </mxCell>
            </root>
        </mxGraphModel>
    </diagram>
</mxfile>